<?xml version="1.0"?>
<svg xmlns="http://www.w3.org/2000/svg" viewBox="0 0 405 405" version="1.0">

    <path id="path1" d="M 0,155.8069 V 144.9567 L 1.8947,128.4188 C 5.8258,103.0365 17.0232,77.1021 33.2354,57.5019 37.7186,52.0818 45.9584,42.5305 51.3275,38.4395 57.0203,34.1019 59.1908,31.4544 67.0779,26.2466 92.5138,9.4521 119.6334,0.1939 152.1505,0.0028 c 21.9974,-0.1292 43.6921,4.3793 61.3576,12.8177 9.1998,4.3949 16.1526,8.2109 23.8348,13.3067 3.3625,2.2306 10.1415,7.2258 13.0215,9.8759 2.4659,2.2692 3.7086,2.9812 6.2147,5.6608 l 5.8433,5.7566 c 0.3997,0.4309 0.578,0.6701 0.9907,1.0928 l 7.6315,8.7148 c 1.5137,1.8558 2.8046,3.4795 4.1768,5.3274 4.612,6.2099 10.3385,14.9259 14.0641,23.0905 6.6379,14.548 10.6141,26.295 13.1247,42.4749 0.4167,2.6852 0.8121,5.3852 1.1027,8.115 0.2029,1.9052 0.4031,7.3902 0.7883,8.6295 v 13.714 c -0.6304,1.8649 -1.1991,13.0581 -1.7223,16.3806 -3.7494,23.8071 -12.2653,44.6227 -25.8361,63.9306 -2.8908,4.1134 -5.1027,6.4111 -7.831,10.0026 -1.3076,1.7212 -2.9072,3.0504 -4.2285,4.682 -5.2013,6.4245 -17.3571,16.1481 -23.9856,20.9016 -18.07,12.9577 -41.6625,22.2015 -63.8385,25.6121 l -16.1339,1.7277 h -14.3124 c -1.4928,-0.3634 -6.4786,-0.2673 -8.5581,-0.4572 -2.827,-0.2582 -5.5735,-0.536 -8.3495,-0.934 -5.3362,-0.7651 -10.3385,-1.8153 -15.4185,-3.03 C 93.0648,292.369 67.8509,279.5009 52.1311,265.4317 L 48.606,262.1361 C 43.5796,257.5701 40.4152,254.3284 36.0848,249.3893 27.1451,239.1942 19.8471,227.1158 13.8132,214.8945 7.8052,202.7251 3.2338,186.3054 1.3893,172.315 Z" style="fill:#0a0a0a;fill-opacity:1;fill-rule:evenodd;stroke:none" transform="matrix(1.3333333,0,0,-1.3333333,1.3333333,403.75547)"></path>
    <path id="path2" d="m 182.7454,62.2111 c 3.7034,1.8445 5.2443,-3.6014 2.4315,-4.9527 -1.6055,-0.7713 -3.2601,0.0879 -3.8168,1.0667 -1.0276,1.8065 -0.1018,3.1456 1.3853,3.886 z m 17.4393,9.0275 c 2.4244,0.7708 4.6213,-2.0143 3.2133,-4.2262 -2.8366,-4.456 -8.6794,2.4889 -3.2133,4.2262 z m -13.36,47.0999 c 8.255,0.5426 5.5154,-3.9027 6.2249,14.8774 3.2374,0.0368 6.5214,0.008 9.7701,0.0303 5.6858,0.0394 4.4989,1.078 7.6391,-2.1606 2.4293,-2.5052 7.2973,-6.8037 9.7784,-9.5332 2.2329,-2.4567 2.0594,-2.9352 6.6473,-3.0095 9.3143,-0.1508 19.7155,-0.3747 28.8839,-0.1834 -0.3507,-0.8759 -2.7766,-3.4659 -3.5887,-4.1494 -1.2634,-1.063 -2.9659,-1.7795 -2.9259,-4.4146 0.0349,-2.2893 0.8436,-3.9909 0.6633,-6.8565 -0.4428,-7.039 -3.2352,-10.9525 -7.5614,-15.1653 -3.4761,-3.3852 -7.7389,-3.843 -9.2257,-5.6279 -1.26,-1.5126 -1.3572,-8.6879 -2.9956,-12.1513 -1.59,-3.3608 -4.1973,-6.5444 -6.6078,-8.2678 -12.4081,-8.873 -18.1259,-1.3181 -22.4989,-6.9168 -12.4985,-16.0013 -31.6392,-9.6891 -36.6197,4.977 -1.94,5.7121 -1.0939,21.9016 -1.0797,28.8916 0.009,4.3452 -0.3109,27.3421 0.131,29.5821 l 7.1413,0.008 c 0.2656,-4.2013 0.0672,-20.0424 0.1145,-25.729 0.0292,-3.5501 -0.1635,-2.8791 1.6214,-4.9235 2.5175,-2.8828 6.4035,-6.3005 7.9796,-8.3741 0.595,-0.7823 0.7506,-0.8229 1.351,-1.4595 l 0.0649,-11.0951 c -1.8661,-1.5857 -2.3973,-1.0698 -3.733,-3.1093 -3.2374,-4.944 0.2784,-11.073 6.0999,-10.9038 7.2181,0.2098 10.1537,10.8204 1.5248,14.0315 0.0167,2.6651 -0.01,5.3393 -0.0304,8.005 -0.0266,3.4206 0.4405,4.2106 -1.4777,6.2553 -1.36,1.4493 -2.3695,2.8312 -3.8398,4.193 -1.9616,1.8167 -2.442,2.3 -3.8259,3.8979 -2.3718,2.7388 -2.0166,1.3008 -2.0109,6.1585 0.008,6.2955 -0.3651,18.1494 -0.0159,23.1035 l 8.4218,0.003 c 0.3469,-3.8871 -0.0241,-9.2131 0.0181,-13.3001 0.0235,-2.2839 0.0482,-4.5698 0.0847,-6.8522 0.0446,-2.7797 0.8558,-2.863 2.1657,-4.3143 2.1373,-2.3678 4.3064,-4.652 6.397,-6.9829 1.1568,-1.2901 2.2269,-2.0614 3.3947,-3.4333 1.1571,-1.3592 1.7759,-2.0336 3.2882,-3.2449 l -0.1204,-5.1865 c -2.0815,-1.6404 -2.2689,-1.0077 -3.5042,-3.3347 -0.8246,-1.5525 -1.1591,-3.3069 -0.5857,-5.2086 0.921,-3.0532 4.0853,-5.7521 8.187,-5.0712 7.1485,1.1868 8.6605,12.1062 -0.4946,14.2092 0.0743,5.0669 1.086,5.0434 -1.9698,8.4866 l -12.4268,13.1188 c -1.0842,1.4729 -0.6443,18.9788 -0.4541,21.1297 z m -23.529,60.1713 24.0628,0.0343 0.0212,-54.7259 -24.0622,-0.1364 z m 82.7238,-40.168 c 3.1093,1.3629 5.1488,-3.7783 2.0367,-5.1852 -3.015,-1.3626 -6.0546,3.424 -2.0367,5.1852 z m -12.3449,14.3926 c 3.5694,1.129 4.7225,-4.3305 1.6775,-5.3824 -3.8182,-1.319 -5.2597,4.2494 -1.6775,5.3824 z m 12.3222,14.7591 c 3.4429,1.404 5.1225,-4.1334 1.8499,-5.2937 -3.2865,-1.1647 -5.9009,3.6423 -1.8499,5.2937 z M 193,167.4196 c 1.9743,-0.0273 16.1447,-0.1163 17.5742,0.5683 l 9.1273,9.0065 c 1.0448,1.0103 1.5942,2.4333 3.3108,2.5316 l 20.5345,-0.2358 c 5.2387,-0.1003 10.94,-5.8635 13.0042,-10.4434 2.9665,-6.5815 2.5229,-12.9807 -0.4297,-19.347 -1.7796,-3.837 0.7452,-5.4179 2.105,-8.1 3.0713,-6.0571 2.74,-13.0068 0.11,-19.0109 l -33.5262,0.1151 -5.8278,5.815 c -1.9981,1.9559 -3.9563,3.7182 -5.8569,5.7334 -2.9985,3.1796 -2.5518,3.2261 -8.5227,3.1425 -3.8556,-0.0539 -7.7836,0.009 -11.6384,-0.0939 l 0.0578,7.5575 19.307,0.0952 c 1.7603,0.007 1.8403,-0.5782 2.636,-1.4371 l 5.2982,-5.3938 c 4.784,-4.396 2.5793,-4.9065 9.3016,-4.883 l 10.599,0.0641 c 1.0849,-1.1018 3.1737,-5.4938 8.5697,-4.1352 7.2788,1.8326 6.556,13.72 -1.9457,13.6528 -5.237,-0.0417 -6.0675,-4.1315 -7.1183,-5.5763 -17.1136,-0.0471 -11.8681,-0.8476 -15.3099,2.2927 -0.7305,0.6661 -1.3459,1.3144 -2.1104,2.0548 -0.8652,0.8382 -3.6803,3.4109 -4.0122,4.3421 2.344,2.1073 2.5129,1.8388 6.2759,1.8218 5.2328,-0.0249 2.4599,-0.4561 5.0392,-2.7238 4.2519,-3.7386 11.3082,-1.3535 11.7527,4.811 0.4646,6.4411 -6.7402,9.5865 -11.4168,5.8666 -1.4775,-1.1753 -1.4437,-1.9775 -2.5351,-4.0363 l -4.623,-0.0417 c -6.4227,-0.0756 -3.8713,-1.5395 -6.9471,-2.6274 -0.9522,-0.337 -20.6218,-0.2367 -22.8555,-0.254 l 0.176,7.4109 18.9284,0.1435 c 5.2004,0.0345 4.9368,0.665 7.3491,3.3803 1.3178,1.4833 4.5079,4.5436 5.0978,5.6168 l 15.1951,-0.002 c 0.1834,-8.8764 11.3295,-9.2939 13.6814,-2.4537 2.5441,7.3988 -7.3224,12.767 -12.4979,6.1354 l -12.7783,-3e-4 c -2.7848,0.003 -4.5799,0.3277 -6.1058,-1.1906 -1.37,-1.3632 -2.2459,-2.3247 -3.8835,-3.8446 -1.3547,-1.2575 -2.2674,-2.6592 -3.6805,-3.8747 l -21.4586,-0.1539 0.0494,7.7012 z m 3.5929,66.3825 c 3.9217,1.3621 4.7645,-4.3253 1.7688,-5.4771 -3.1343,-1.2053 -5.851,4.0595 -1.7688,5.4771 z m -14.4491,10.637 c 3.3517,1.0582 5.0945,-4.46 1.4613,-5.5028 -3.6232,-1.0398 -5.5457,4.2137 -1.4613,5.5028 z M 163.345,184.1057 c -0.1488,9.4493 6e-4,19.027 -0.006,28.4922 -0.004,5.5768 -0.4113,23.7276 0.5479,27.9586 1.6285,7.1816 7.0756,12.6409 13.8977,14.6192 10.4465,3.0296 17.9334,-3.441 23.5029,-11.1317 4.0212,-5.5531 8.6494,-2.1311 15.8389,-5.5386 5.0468,-2.3922 11.7059,-9.0516 11.2532,-17.2877 -0.3322,-6.0429 0.402,-7.1339 5.0715,-9.1828 6.7575,-2.9648 11.5639,-8.5431 12.657,-15.8822 0.5408,-3.6315 0.0175,-9.6361 -1.664,-12.3004 -3.2187,-0.0709 -22.1213,0.1831 -23.4728,-0.3739 -0.9091,-0.3747 -8.6261,-8.7284 -10.457,-10.3689 -0.6869,-0.6154 -0.8368,-0.9711 -1.4545,-1.5896 l -16.0154,0.1122 c -1.122,13.0796 3.0549,12.5311 -6.2042,12.5448 -0.5083,2.9063 -0.1443,9.6573 -0.146,12.9682 -0.004,7.4642 -0.5046,5.438 3.4205,9.4354 2.2581,2.2992 4.241,4.2843 6.577,6.5018 1.5565,1.478 1.9602,1.5041 1.9346,4.5604 -0.0175,2.1243 0.0386,4.2656 -0.003,6.383 3.1972,1.2657 5.9443,2.8732 5.8385,7.2729 -0.0895,3.7389 -2.6946,6.4097 -6.1319,6.8414 -7.1291,0.8952 -12.0807,-9.0607 -3.6485,-13.7429 0.0579,-2.1297 0.1253,-4.6537 0.003,-6.7604 -0.1009,-1.7444 -1.7081,-2.7227 -2.7167,-3.6998 l -6.4652,-6.6044 c -0.9885,-1.1418 -2.6,-1.6455 -2.7528,-3.6842 -0.142,-1.8975 0.0567,-4.496 0.0335,-6.5032 -0.0445,-3.8248 0.2749,-9.4592 -0.142,-13.0034 l -7.7516,0.0403 0.0249,27.2505 c 1.4323,0.9834 7.4667,7.0135 8.0847,7.9076 1.3391,1.9372 0.9533,12.109 0.9408,15.1489 2.0979,1.2605 2.412,0.9275 4.136,2.6538 1.1807,1.1823 1.8258,2.7595 1.793,4.879 -0.0584,3.7751 -2.7647,6.5369 -6.41,6.7901 -5.571,0.3866 -9.921,-5.4822 -6.9078,-10.7819 1.0131,-1.7818 1.5611,-1.8913 3.3273,-3.1445 0.1712,-2.537 0.005,-5.1655 0.0193,-7.7264 0.0167,-2.9726 0.7194,-4.5856 -0.955,-6.4394 l -3.6961,-3.7256 c -0.9822,-0.913 -3.0268,-2.539 -3.7596,-3.6624 -1.2271,-1.8807 -0.3931,-24.7665 -0.5712,-29.2101 l -7.5719,-0.0159 z m 86.9743,-0.9275 c 0.368,2.3658 1.141,4.2004 1.3941,6.9225 1.0942,11.7533 -4.0946,20.929 -13.9734,25.9109 -7.539,3.8021 -1.58,0.9689 -4.5008,11.5739 -2.7159,9.8614 -11.9157,17.2037 -21.5929,18.4513 -3.4416,0.4439 -4.2081,-0.3615 -6.0653,2.0179 -2.5067,3.2117 -4.6775,5.9928 -7.6757,8.358 -10.3714,8.1825 -24.472,6.9559 -34.3196,-3.6845 -6.8139,-7.3627 -5.9261,-16.4715 -5.9111,-26.1632 l 0.0108,-112.6273 c 0.008,-10.6962 0.0431,-21.3987 0.007,-32.0941 -0.034,-10.129 -1.1724,-20.4007 3.5215,-28.5415 6.4406,-11.1705 19.7229,-16.8556 32.6653,-11.247 1.9987,0.866 3.3769,1.7218 5.1029,2.9166 6.7623,4.6814 4.2165,6.6336 9.4802,6.4658 6.7745,-0.2163 13.3149,1.9681 18.3146,5.8623 2.8973,2.2564 5.2566,4.828 7.4705,8.5601 0.898,1.5134 1.7923,3.8389 2.3051,5.7152 1.893,6.9284 -0.6086,6.1656 3.3763,7.9452 1.7076,0.7623 4.0459,2.3539 5.421,3.4776 7.7845,6.3632 11.2558,15.3479 9.5584,26.1853 1.3819,1.6738 2.3177,2.0639 3.5459,3.5028 1.0783,1.2631 1.8009,2.084 2.8451,3.6824 4.023,6.1586 5.5744,13.9805 3.9702,21.403 -1.021,4.7251 -3.8041,8.3656 -3.899,9.197 -0.1245,1.0857 1.228,3.7857 1.6038,5.1614 1.5449,5.6539 1.4071,11.5098 -0.5845,16.9307 -1.0811,2.9427 -3.2213,6.6337 -4.9053,8.1641 -1.1401,1.0361 -2.1045,2.3159 -3.3503,3.1808 -1.1608,0.8058 -2.8378,1.9153 -3.8149,2.7728" style="fill:#ffc400;fill-opacity:1;fill-rule:evenodd;stroke:none" transform="matrix(1.3333333,0,0,-1.3333333,1.3333333,403.75547)"></path>
    <path id="path3" d="m 63.5267,198.7325 c -1.2147,5.591 3.4463,13.1513 8.314,16.4729 3.3018,2.2533 4.773,2.2638 4.9952,7.5014 0.1741,4.1043 1.1367,6.3669 2.9724,9.1814 8.7293,13.3855 26.4682,10.5769 28.7904,-3.2431 -0.8102,-0.7396 -4.555,-2.1966 -5.7484,-2.8545 -4.0385,-2.2261 -8.2281,-6.5631 -11.0704,-10.3119 -0.3416,-0.4501 -1.3541,-2.0146 -1.5738,-2.5982 -1.016,-2.7006 0.7991,-4.9734 3.454,-3.7545 1.2657,0.5811 3.7173,5.5811 7.9447,9.0065 1.6078,1.3028 2.8306,2.2774 4.8957,3.4254 7.7887,4.3296 19.8156,3.2978 27.019,-0.9879 1.0533,-0.6267 1.76,-1.0766 2.6849,-1.7731 4.9916,-3.7601 4.4921,-3.4463 4.502,-7.982 0.0102,-4.5108 0.4573,-12.7148 -0.1159,-16.7981 -0.5723,0.534 -0.7228,0.8957 -1.3513,1.6526 -3.3389,4.0215 -7.7431,6.7385 -13.0847,8.3077 -15.1251,4.4433 -16.4211,-5.8714 -9.3283,-4.9532 8.1111,1.0496 14.1744,-2.3644 17.8767,-6.4043 4.5326,-4.9456 5.8788,-9.6792 5.8632,-18.3555 -0.0292,-16.3338 0.0289,-32.6957 0.036,-49.034 0.002,-4.8997 0.65,-20.2411 -0.4045,-23.847 -1.0689,-3.6553 -2.7093,-5.569 -4.6791,-7.5175 -2.3383,-2.3133 -5.4514,-2.8945 -9.4723,-2.8531 -1.2197,3.0056 -4.3089,7.1374 -6.4542,8.3475 -2.0574,1.1605 -4.3948,-0.2259 -4.0606,-2.5753 0.1961,-1.3782 2.3113,-3.1456 3.1875,-4.25 4.2095,-5.3056 7.0458,-14.9048 3.2854,-22.5813 -2.6167,-5.3422 -6.2515,-5.9085 -6.264,-8.6165 -0.0105,-2.2728 2.2428,-3.4605 4.3568,-2.262 1.3649,0.7733 2.6377,2.296 3.5717,3.5549 5.1191,6.9026 6.842,12.4276 4.684,22.8906 8.5348,0.4022 10.9632,5.1653 12.1929,5.4519 0.1383,-5.2875 0.0544,-10.3901 0.0448,-15.6665 -0.009,-5.1529 0.5102,-9.5131 -0.896,-14.4292 -1.9902,-6.9585 -8.4609,-13.5349 -15.9143,-14.9996 -4.36,-0.8566 -9.4694,0.0304 -12.9535,1.9103 -2.4162,1.3039 -4.9612,3.096 -6.4774,5.1222 -0.6305,0.8428 -0.9981,1.3655 -2.0172,1.8329 -2.6178,1.2013 -6.1171,-1.3612 -12.8724,2.5886 -3.3196,1.9409 -5.055,4.3129 -6.5849,8.6967 2.2232,0.7702 4.7141,0.7951 7.1589,1.7226 4.3084,1.6347 7.3619,4.0629 9.6789,8.13 0.6494,1.1396 2.2371,5.1668 3.0161,5.8987 1.2991,-1.3108 3.941,-3.134 5.8056,-4.1746 3.5144,-1.9616 6.0945,0.8447 4.5703,3.3738 -0.3951,0.6556 -4.8753,3.4373 -5.8844,4.2176 -12.0249,9.2968 -6.1223,18.3839 -11.9747,17.8492 -5.186,-0.4733 -0.328,-11.9939 1.0091,-14.2562 1.3139,-2.2227 2.3863,-2.3531 0.1874,-7.5402 -3.3245,-7.8418 -11.0421,-10.679 -19.9754,-9.2979 -12.2939,1.9006 -16.9861,11.3831 -17.091,22.6142 1.4134,-0.0541 3.2811,-0.6865 4.9448,-0.8512 4.4285,-0.438 10.4009,0.1306 13.6837,2.6934 1.2617,0.9848 1.385,3.1624 0.0878,4.2483 -1.4533,1.2169 -2.9154,0.1996 -4.2057,-0.4357 -6.8823,-3.3891 -20.1286,-0.1547 -22.5808,9.3348 -0.8459,3.2726 0.1681,6.5067 1.6631,8.9028 2.2858,3.6632 -1.5679,4.919 -3.1232,6.8476 -6.0736,7.5317 -8.0269,17.1162 -3.4002,25.8364 0.6463,1.2181 1.4726,2.5195 2.1821,3.4645 l 2.6456,3.0062 c 2.1725,2.2178 3.5132,3.4514 6.6807,4.9189 1.2404,0.5746 2.7561,1.126 4.233,1.448 1.6642,0.3631 3.4282,0.3245 4.0552,1.5587 0.8133,1.6002 0.0927,3.4353 -1.3122,3.9742 -2.9987,1.1503 -10.2024,-2.6501 -12.4775,-3.85 -2.9177,3.6119 -2.058,17.1247 6.6283,24.2665 9.8761,8.1205 25.3544,7.7593 36.303,1.7195 5.5664,-3.071 10.0304,-7.7697 12.6774,-14.3855 2.1197,-5.2977 1.2818,-9.7245 2.9443,-10.7113 1.9055,-1.1313 3.7392,0.5006 4.0337,2.1413 0.2781,1.5491 -0.1749,4.3512 -0.5014,5.8694 -2.941,13.6752 -14.243,23.0729 -27.91,26.1392 -8.6624,1.9431 -15.5579,0.7732 -23.1006,-1.9684 z m 40.0328,45.5649 c 2.0843,9.0332 16.7071,15.1271 27.0199,8.996 4.3631,-2.5939 7.5364,-6.3371 9,-11.5151 1.7237,-6.0991 0.8662,-12.7523 1.0522,-19.1098 -2.018,0.6537 -6.4296,6.1053 -18.4839,7.3519 -2.9452,0.3048 -6.8972,-0.1817 -7.7023,0.0834 -1.9349,6.6322 -3.746,10.7875 -10.8859,14.1936 z m -6.1455,1.9313 c -7.2312,0.409 -13.0272,-1.9506 -17.299,-5.4301 -3.3497,-2.7286 -7.7164,-7.4713 -8.7877,-13.8195 -1.0057,-5.9604 0.9933,-4.4438 -3.4897,-7.7811 -1.7093,-1.2724 -4.1675,-3.9078 -5.4924,-5.7889 -3.782,-5.3702 -4.6704,-9.9283 -4.1933,-17.5804 -1.1086,-0.4184 -2.7448,-1.8658 -3.579,-2.5889 -1.1458,-0.993 -1.8751,-1.9948 -2.8361,-3.1059 -4.015,-4.6423 -6.3904,-11.7083 -6.1877,-18.2515 0.1377,-4.4546 1.3563,-6.0508 2.3992,-9.506 -8.3905,-9.9833 -12.7613,-20.321 -6.7493,-33.5466 1.2178,-2.6793 4.3793,-7.8497 6.2467,-8.8038 -0.6352,-2.3664 -1.6132,-3.6868 -1.8504,-6.6722 -0.5797,-7.2921 4.5467,-14.7682 8.8126,-16.1855 -0.7719,-8.6026 0.6559,-16.2179 5.2384,-21.511 2.4645,-2.8469 3.78,-4.1559 7.3761,-6.2782 3.0622,-1.8071 6.3887,-2.827 10.4139,-3.2224 0.6953,-5.6855 4.2857,-10.3377 7.2238,-12.4305 8.6958,-6.1932 13.5482,-3.3211 15.3391,-4.2364 3.236,-3.4622 7.0336,-6.8168 13.1899,-8.5433 6.3128,-1.7706 12.3035,-1.2396 17.767,1.6273 10.9565,5.7495 15.2697,14.4709 15.3204,27.383 l 0.0167,128.3771 c -0.01,7.545 0.4998,37.2529 -0.447,42.3383 -2.1668,11.6388 -10.3734,19.6203 -21.7006,21.0835 -6.4063,0.8277 -12.5116,-1.0967 -17.0912,-3.9163 -6.1288,-3.7735 -6.7825,-6.8548 -9.6404,-11.6107" style="fill:#ffc400;fill-opacity:1;fill-rule:evenodd;stroke:none" transform="matrix(1.3333333,0,0,-1.3333333,1.3333333,403.75547)"></path>
    <path id="path4" d="m 89.7157,119.9154 c 1.029,-1.9301 6.7218,-4.6715 8.7361,-5.4354 3.6346,-1.3785 8.2601,-2.3709 12.543,-2.1866 6.4261,0.2766 11.4596,1.9669 16.465,5.3866 1.2345,0.8436 3.4036,2.1104 3.6233,3.7727 0.2837,2.1489 -1.298,3.8364 -3.5104,2.9613 -1.3788,-0.5457 -11.4152,-11.2717 -27.7609,-4.7262 -5.7693,2.3102 -7.1141,5.2189 -9.049,5.5556 -4.4422,0.773 -11.0993,-4.4623 -21.8146,5.7864 -2.5325,2.4219 -4.3021,5.6265 -5.3753,9.2098 -0.4388,1.4652 -0.8309,4.4909 -1.6654,5.4405 -1.3252,1.508 -4.4115,0.94 -4.5258,-1.7118 -0.2491,-5.7728 3.826,-12.8265 8.036,-17.064 3.1453,-3.1658 5.8793,-5.4842 11.3176,-7.1065 5.1108,-1.5245 8.0152,-0.6174 12.9804,0.1176" style="fill:#ffc400;fill-opacity:1;fill-rule:evenodd;stroke:none" transform="matrix(1.3333333,0,0,-1.3333333,1.3333333,403.75547)"></path>
    <path id="path5" d="m 79.5515,178.7924 c -2.6084,-0.966 -2.3139,-5.7832 -2.2124,-9.2857 0.2741,-9.487 5.1199,-17.8242 11.9049,-22.9317 9.3178,-7.0138 24.6957,-8.1924 36.3438,-2.6476 3.4611,1.6475 1.8565,6.5537 -2.4814,4.8481 -9.8708,-3.8806 -18.2316,-4.6822 -28.082,0.5908 -7.9146,4.2366 -12.3092,13.0079 -12.2978,22.223 0.0014,1.3045 0.4039,4.32 0.2466,5.2787 -0.216,1.3175 -1.8371,2.5118 -3.4217,1.9244" style="fill:#ffc400;fill-opacity:1;fill-rule:evenodd;stroke:none" transform="matrix(1.3333333,0,0,-1.3333333,1.3333333,403.75547)"></path>
    <path id="path6" d="m 235.7938,102.3483 c -1.1398,3.4461 3.9058,5.3563 5.2361,1.9131 1.4695,-3.8035 -4.1896,-5.0783 -5.2361,-1.9131 z m -4.3878,-0.6715 c 0.7838,-1.4208 2.0342,-5.893 7.6791,-5.3725 8.2326,0.7591 8.3931,12.4061 0.6406,13.8203 -1.9236,0.3509 -3.6513,-0.08 -5.0831,-0.9743 -2.1645,-1.3518 -1.4488,-1.929 -2.9976,-3.4591 l -5.9429,-0.1437 c -2.8868,0.019 -3.3443,0.1511 -4.7888,1.8147 -5.133,5.9125 -10.8981,10.9511 -16.2672,16.7227 -1.296,1.393 -2.4145,1.6546 -5.114,1.4837 -2.5636,-0.1627 -2.5469,-2.986 -0.9822,-3.7049 1.0046,-0.4618 1.9508,-0.1228 2.8687,-0.3991 0.9363,-0.2821 12.9968,-13.0507 14.8788,-14.8507 6.0825,-5.8182 3.4018,-5.0369 15.1086,-4.9371" style="fill:#ffc400;fill-opacity:1;fill-rule:evenodd;stroke:none" transform="matrix(1.3333333,0,0,-1.3333333,1.3333333,403.75547)"></path>
    <path id="path7-4" d="m 219.3693,79.4398 c 3.617,1.1775 4.7287,-4.4986 1.7135,-5.4819 -3.5357,-1.1529 -5.7387,4.1712 -1.7135,5.4819 z m 7.6963,-1.8405 c -0.4612,4.5949 -3.7429,4.9382 -5.9587,7.3803 l -4.9589,5.14 c -1.1381,1.0182 -2.9625,3.6071 -4.8351,5.2713 l -9.758,10.1498 c -3.0024,3.4993 -4.6488,5.9042 -7.412,4.6133 -0.6854,-2.7864 0.2948,-2.9488 1.7254,-4.3565 1.0588,-1.042 2.0583,-2.0962 3.0175,-3.2275 1.7258,-2.0348 1.8502,-1.7357 3.062,-3.1678 2.9656,-3.5039 2.3315,-2.5251 4.6559,-4.8563 l 7.4089,-8.0453 c 0.989,-0.9989 2.079,-2.1123 3.0294,-3.1983 -0.9677,-1.2288 -2.4055,-1.5973 -3.3837,-3.3738 -2.6011,-4.7225 1.4199,-11.702 8.0059,-10.0718 3.134,0.7759 5.8028,3.7466 5.4014,7.7426" style="fill:#ffc400;fill-opacity:1;fill-rule:evenodd;stroke:none" transform="matrix(1.3333333,0,0,-1.3333333,1.3333333,403.75547)"></path>
    <path id="path8-7" d="m 229.3044,200.2056 c 3.3979,1.7842 5.459,-3.7516 2.1005,-5.2197 -2.9838,-1.3045 -5.9173,3.2159 -2.1005,5.2197 z m -10.5661,-5.4173 c 5.6222,0.2478 4.7072,0.3518 5.9703,-1.32 3.6955,-4.8912 11.5064,-3.2273 12.5362,2.8193 1.6832,9.8833 -12.6039,11.3196 -13.7608,2.5361 -8.5768,0.099 -5.1389,0.2146 -12.7196,-7.2496 l -2.624,-2.423 c -0.9071,-0.8816 -1.4874,-1.4774 -2.3057,-2.4455 -4.5272,-5.3549 -3.9393,-2.4675 -5.8439,-3.9758 -1.9917,-1.5778 0.0989,-4.6188 4.4067,-2.8945 l 9.6299,9.9663 c 0.8818,0.8986 1.7733,1.4508 2.6475,2.3984 0.8453,0.9162 1.3969,1.5846 2.0634,2.5883" style="fill:#ffc400;fill-opacity:1;fill-rule:evenodd;stroke:none" transform="matrix(1.3333333,0,0,-1.3333333,1.3333333,403.75547)"></path>
    <path id="path9" d="m 210.8718,222.9987 c -0.6015,4.0513 5.0426,4.4244 5.5242,0.8056 0.2205,-1.656 -0.9553,-2.9681 -2.3454,-3.1558 -1.5338,-0.2072 -2.9803,1.0131 -3.1788,2.3502 z m 4.0533,-6.4272 c 1.6067,0.6105 3.1853,1.0187 4.485,2.9032 1.2149,1.7615 1.7657,4.5405 0.7064,6.8644 -3.4044,7.4673 -14.6208,4.3291 -13.5304,-3.943 0.6625,-5.0261 4.6628,-3.098 3.5238,-9.1193 -0.1959,-1.0367 -1.1041,-1.548 -1.8581,-2.2488 L 195.584,198.1417 c -0.5363,-0.5337 -1.8309,-1.4992 -2.0574,-2.3805 -0.2911,-1.1327 0.3822,-2.1932 1.3607,-2.4185 1.6404,-0.3782 2.7037,1.5247 4.6117,3.5572 1.3439,1.4315 2.8672,3.0537 4.2976,4.3194 0.5468,0.4839 0.5604,0.4059 1.0856,1.0015 0.5681,0.644 0.3552,0.519 1.0202,1.0502 l 4.29,4.3282 c 3.9637,4.4927 3.8636,2.2085 3.8579,8.5646 z" style="fill:#ffc400;fill-opacity:1;fill-rule:evenodd;stroke:none" transform="matrix(1.3333333,0,0,-1.3333333,1.3333333,403.75547)"></path>
  
</svg>